<svg width="111" height="20" viewBox="0 0 111 20" fill="none" xmlns="http://www.w3.org/2000/svg">
<path d="M2.91537 12.8836C1.30523 11.2933 1.30523 8.71475 2.91537 7.1244L10.1284 0L13.0438 2.87962C14.6539 4.46998 14.6539 7.04848 13.0438 8.63885L5.83081 15.7633L2.91537 12.8836Z" fill="#272727"/>
<path d="M14.1452 15.9978L4.05995 6.0365L2.93698 7.14567C1.32683 8.73605 1.32683 11.3145 2.93698 12.9049L10.1068 19.9866L14.1452 15.9978Z" fill="black"/>
<path d="M5.83081 15.7632L13.2165 8.4682L14.5555 9.79067C16.1656 11.3811 16.1656 13.9595 14.5555 15.5499L10.0852 19.9653L5.83081 15.7632Z" fill="#4D4D4D"/>
<path d="M37.4137 7.77166H35.4215C35.3647 7.44496 35.2599 7.15554 35.1072 6.90341C34.9545 6.64773 34.7646 6.43111 34.5373 6.25355C34.31 6.07599 34.0508 5.94283 33.7596 5.85405C33.4719 5.76172 33.1612 5.71555 32.8274 5.71555C32.2344 5.71555 31.7088 5.8647 31.2507 6.163C30.7926 6.45774 30.4339 6.89098 30.1747 7.46271C29.9155 8.03089 29.7859 8.72514 29.7859 9.54545C29.7859 10.38 29.9155 11.0831 30.1747 11.6548C30.4375 12.223 30.7962 12.6527 31.2507 12.9439C31.7088 13.2315 32.2326 13.3754 32.8221 13.3754C33.1488 13.3754 33.4542 13.3327 33.7383 13.2475C34.0259 13.1587 34.2834 13.0291 34.5107 12.8587C34.7415 12.6882 34.935 12.4787 35.0913 12.2301C35.2511 11.9815 35.3612 11.6974 35.4215 11.3778L37.4137 11.3885C37.3391 11.907 37.1776 12.3935 36.929 12.848C36.6839 13.3026 36.3626 13.7038 35.9648 14.0518C35.5671 14.3963 35.1019 14.6662 34.5692 14.8615C34.0366 15.0533 33.4453 15.1491 32.7955 15.1491C31.8366 15.1491 30.9808 14.9272 30.228 14.4833C29.4751 14.0394 28.8821 13.3984 28.4489 12.5604C28.0156 11.7223 27.799 10.7173 27.799 9.54545C27.799 8.37003 28.0174 7.36506 28.4542 6.53054C28.891 5.69247 29.4858 5.05149 30.2386 4.6076C30.9915 4.16371 31.8438 3.94176 32.7955 3.94176C33.4027 3.94176 33.9673 4.02699 34.4893 4.19744C35.0114 4.3679 35.4766 4.61825 35.8849 4.94851C36.2933 5.27521 36.6289 5.67649 36.8917 6.15234C37.158 6.62464 37.332 7.16442 37.4137 7.77166ZM42.7071 15.1598C41.9081 15.1598 41.2156 14.984 40.6297 14.6325C40.0438 14.2809 39.5892 13.7891 39.2661 13.157C38.9465 12.5249 38.7867 11.7862 38.7867 10.9411C38.7867 10.0959 38.9465 9.35547 39.2661 8.71982C39.5892 8.08416 40.0438 7.59055 40.6297 7.23899C41.2156 6.88743 41.9081 6.71165 42.7071 6.71165C43.5061 6.71165 44.1986 6.88743 44.7845 7.23899C45.3705 7.59055 45.8232 8.08416 46.1428 8.71982C46.466 9.35547 46.6276 10.0959 46.6276 10.9411C46.6276 11.7862 46.466 12.5249 46.1428 13.157C45.8232 13.7891 45.3705 14.2809 44.7845 14.6325C44.1986 14.984 43.5061 15.1598 42.7071 15.1598ZM42.7178 13.6151C43.151 13.6151 43.5132 13.4961 43.8044 13.2582C44.0956 13.0167 44.3122 12.6935 44.4543 12.2887C44.5999 11.8839 44.6727 11.4329 44.6727 10.9357C44.6727 10.435 44.5999 9.98224 44.4543 9.57741C44.3122 9.16903 44.0956 8.84411 43.8044 8.60263C43.5132 8.36115 43.151 8.24041 42.7178 8.24041C42.2739 8.24041 41.9046 8.36115 41.6098 8.60263C41.3186 8.84411 41.1002 9.16903 40.9546 9.57741C40.8126 9.98224 40.7416 10.435 40.7416 10.9357C40.7416 11.4329 40.8126 11.8839 40.9546 12.2887C41.1002 12.6935 41.3186 13.0167 41.6098 13.2582C41.9046 13.4961 42.2739 13.6151 42.7178 13.6151ZM48.2642 15V6.81818H50.1072V8.20845H50.2031C50.3736 7.7397 50.6559 7.37393 51.0501 7.11115C51.4442 6.84482 51.9148 6.71165 52.4616 6.71165C53.0156 6.71165 53.4826 6.84659 53.8626 7.11648C54.2461 7.38281 54.516 7.7468 54.6722 8.20845H54.7575C54.9386 7.75391 55.244 7.39169 55.6737 7.1218C56.1069 6.84837 56.62 6.71165 57.2131 6.71165C57.9659 6.71165 58.5803 6.94957 59.0561 7.42543C59.532 7.90128 59.7699 8.59553 59.7699 9.50817V15H57.8363V9.80646C57.8363 9.29865 57.7013 8.92756 57.4315 8.69318C57.1616 8.45526 56.8313 8.33629 56.4407 8.33629C55.9755 8.33629 55.6115 8.48189 55.3487 8.77308C55.0895 9.06072 54.9599 9.43537 54.9599 9.89702V15H53.0689V9.72656C53.0689 9.30398 52.9411 8.96662 52.6854 8.71449C52.4332 8.46236 52.103 8.33629 51.6946 8.33629C51.4176 8.33629 51.1655 8.40732 50.9382 8.54936C50.7109 8.68786 50.5298 8.88494 50.3949 9.14062C50.2599 9.39276 50.1925 9.6875 50.1925 10.0249V15H48.2642ZM61.7261 15V6.81818H63.5692V8.20845H63.665C63.8355 7.7397 64.1178 7.37393 64.512 7.11115C64.9062 6.84482 65.3767 6.71165 65.9236 6.71165C66.4775 6.71165 66.9445 6.84659 67.3245 7.11648C67.708 7.38281 67.9779 7.7468 68.1341 8.20845H68.2194C68.4005 7.75391 68.7059 7.39169 69.1356 7.1218C69.5688 6.84837 70.0819 6.71165 70.675 6.71165C71.4278 6.71165 72.0422 6.94957 72.518 7.42543C72.9939 7.90128 73.2318 8.59553 73.2318 9.50817V15H71.2982V9.80646C71.2982 9.29865 71.1633 8.92756 70.8934 8.69318C70.6235 8.45526 70.2932 8.33629 69.9026 8.33629C69.4374 8.33629 69.0734 8.48189 68.8106 8.77308C68.5514 9.06072 68.4218 9.43537 68.4218 9.89702V15H66.5308V9.72656C66.5308 9.30398 66.403 8.96662 66.1473 8.71449C65.8952 8.46236 65.5649 8.33629 65.1565 8.33629C64.8795 8.33629 64.6274 8.40732 64.4001 8.54936C64.1729 8.68786 63.9917 8.88494 63.8568 9.14062C63.7219 9.39276 63.6544 9.6875 63.6544 10.0249V15H61.7261ZM80.4029 11.5589V6.81818H82.3311V15H80.4615V13.5458H80.3762C80.1916 14.0039 79.888 14.3786 79.4654 14.6697C79.0463 14.9609 78.5297 15.1065 77.9153 15.1065C77.3791 15.1065 76.905 14.9876 76.4931 14.7496C76.0847 14.5082 75.7651 14.1584 75.5343 13.7003C75.3034 13.2386 75.188 12.6811 75.188 12.0277V6.81818H77.1163V11.7294C77.1163 12.2479 77.2583 12.6598 77.5424 12.9652C77.8265 13.2706 78.1994 13.4233 78.661 13.4233C78.9451 13.4233 79.2203 13.354 79.4867 13.2156C79.753 13.0771 79.9714 12.8711 80.1419 12.5977C80.3159 12.3207 80.4029 11.9744 80.4029 11.5589ZM86.2423 10.206V15H84.314V6.81818H86.157V8.20845H86.2529C86.4411 7.75035 86.7412 7.38636 87.1531 7.11648C87.5686 6.84659 88.0818 6.71165 88.6926 6.71165C89.2572 6.71165 89.749 6.83239 90.1681 7.07386C90.5906 7.31534 90.9173 7.66513 91.1482 8.12322C91.3825 8.58132 91.498 9.13707 91.4944 9.79048V15H89.5661V10.0888C89.5661 9.5419 89.4241 9.11399 89.14 8.80504C88.8595 8.49609 88.4706 8.34162 87.9735 8.34162C87.6361 8.34162 87.336 8.41619 87.0732 8.56534C86.814 8.71094 86.6098 8.92223 86.4607 9.19922C86.3151 9.47621 86.2423 9.81179 86.2423 10.206ZM93.4546 15V6.81818H95.3829V15H93.4546ZM94.4241 5.65696C94.1187 5.65696 93.8559 5.55575 93.6357 5.35334C93.4156 5.14737 93.3055 4.90057 93.3055 4.61293C93.3055 4.32173 93.4156 4.07493 93.6357 3.87251C93.8559 3.66655 94.1187 3.56357 94.4241 3.56357C94.733 3.56357 94.9958 3.66655 95.2124 3.87251C95.4326 4.07493 95.5427 4.32173 95.5427 4.61293C95.5427 4.90057 95.4326 5.14737 95.2124 5.35334C94.9958 5.55575 94.733 5.65696 94.4241 5.65696ZM101.451 6.81818V8.30966H96.7479V6.81818H101.451ZM97.9091 4.85795H99.8374V12.5391C99.8374 12.7983 99.8764 12.9972 99.9545 13.1357C100.036 13.2706 100.143 13.3629 100.274 13.4126C100.406 13.4624 100.551 13.4872 100.711 13.4872C100.832 13.4872 100.942 13.4783 101.041 13.4606C101.144 13.4428 101.222 13.4268 101.276 13.4126L101.6 14.9201C101.498 14.9556 101.35 14.9947 101.158 15.0373C100.97 15.0799 100.739 15.1048 100.466 15.1119C99.983 15.1261 99.5479 15.0533 99.1609 14.8935C98.7738 14.7301 98.4666 14.478 98.2393 14.1371C98.0156 13.7962 97.9055 13.37 97.9091 12.8587V4.85795ZM104.263 18.0682C104 18.0682 103.756 18.0469 103.533 18.0043C103.313 17.9652 103.137 17.919 103.005 17.8658L103.453 16.3636C103.733 16.4453 103.984 16.4844 104.204 16.4808C104.424 16.4773 104.618 16.408 104.785 16.2731C104.955 16.1417 105.099 15.9215 105.216 15.6126L105.381 15.1705L102.414 6.81818H104.46L106.345 12.9972H106.43L108.321 6.81818H110.372L107.096 15.9908C106.944 16.424 106.741 16.7951 106.489 17.104C106.237 17.4165 105.928 17.6545 105.562 17.8178C105.2 17.9847 104.767 18.0682 104.263 18.0682Z" fill="black"/>
<path d="M2.91537 12.8836C1.30523 11.2933 1.30523 8.71475 2.91537 7.1244L10.1284 0L13.0438 2.87962C14.6539 4.46998 14.6539 7.04848 13.0438 8.63885L5.83081 15.7633L2.91537 12.8836Z" fill="#F4F4F4"/>
<path d="M14.1452 15.9978L4.05995 6.0365L2.93698 7.14567C1.32683 8.73605 1.32683 11.3145 2.93698 12.9049L10.1068 19.9866L14.1452 15.9978Z" fill="white"/>
<path d="M5.83081 15.7632L13.2165 8.4682L14.5555 9.79067C16.1656 11.3811 16.1656 13.9595 14.5555 15.5499L10.0852 19.9653L5.83081 15.7632Z" fill="#E9E9E9"/>
<path d="M37.4137 7.77166H35.4215C35.3647 7.44496 35.2599 7.15554 35.1072 6.90341C34.9545 6.64773 34.7646 6.43111 34.5373 6.25355C34.31 6.07599 34.0508 5.94283 33.7596 5.85405C33.4719 5.76172 33.1612 5.71555 32.8274 5.71555C32.2344 5.71555 31.7088 5.8647 31.2507 6.163C30.7926 6.45774 30.4339 6.89098 30.1747 7.46271C29.9155 8.03089 29.7859 8.72514 29.7859 9.54545C29.7859 10.38 29.9155 11.0831 30.1747 11.6548C30.4375 12.223 30.7962 12.6527 31.2507 12.9439C31.7088 13.2315 32.2326 13.3754 32.8221 13.3754C33.1488 13.3754 33.4542 13.3327 33.7383 13.2475C34.0259 13.1587 34.2834 13.0291 34.5107 12.8587C34.7415 12.6882 34.935 12.4787 35.0913 12.2301C35.2511 11.9815 35.3612 11.6974 35.4215 11.3778L37.4137 11.3885C37.3391 11.907 37.1776 12.3935 36.929 12.848C36.6839 13.3026 36.3626 13.7038 35.9648 14.0518C35.5671 14.3963 35.1019 14.6662 34.5692 14.8615C34.0366 15.0533 33.4453 15.1491 32.7955 15.1491C31.8366 15.1491 30.9808 14.9272 30.228 14.4833C29.4751 14.0394 28.8821 13.3984 28.4489 12.5604C28.0156 11.7223 27.799 10.7173 27.799 9.54545C27.799 8.37003 28.0174 7.36506 28.4542 6.53054C28.891 5.69247 29.4858 5.05149 30.2386 4.6076C30.9915 4.16371 31.8438 3.94176 32.7955 3.94176C33.4027 3.94176 33.9673 4.02699 34.4893 4.19744C35.0114 4.3679 35.4766 4.61825 35.8849 4.94851C36.2933 5.27521 36.6289 5.67649 36.8917 6.15234C37.158 6.62464 37.332 7.16442 37.4137 7.77166ZM42.7071 15.1598C41.9081 15.1598 41.2156 14.984 40.6297 14.6325C40.0438 14.2809 39.5892 13.7891 39.2661 13.157C38.9465 12.5249 38.7867 11.7862 38.7867 10.9411C38.7867 10.0959 38.9465 9.35547 39.2661 8.71982C39.5892 8.08416 40.0438 7.59055 40.6297 7.23899C41.2156 6.88743 41.9081 6.71165 42.7071 6.71165C43.5061 6.71165 44.1986 6.88743 44.7845 7.23899C45.3705 7.59055 45.8232 8.08416 46.1428 8.71982C46.466 9.35547 46.6276 10.0959 46.6276 10.9411C46.6276 11.7862 46.466 12.5249 46.1428 13.157C45.8232 13.7891 45.3705 14.2809 44.7845 14.6325C44.1986 14.984 43.5061 15.1598 42.7071 15.1598ZM42.7178 13.6151C43.151 13.6151 43.5132 13.4961 43.8044 13.2582C44.0956 13.0167 44.3122 12.6935 44.4543 12.2887C44.5999 11.8839 44.6727 11.4329 44.6727 10.9357C44.6727 10.435 44.5999 9.98224 44.4543 9.57741C44.3122 9.16903 44.0956 8.84411 43.8044 8.60263C43.5132 8.36115 43.151 8.24041 42.7178 8.24041C42.2739 8.24041 41.9046 8.36115 41.6098 8.60263C41.3186 8.84411 41.1002 9.16903 40.9546 9.57741C40.8126 9.98224 40.7416 10.435 40.7416 10.9357C40.7416 11.4329 40.8126 11.8839 40.9546 12.2887C41.1002 12.6935 41.3186 13.0167 41.6098 13.2582C41.9046 13.4961 42.2739 13.6151 42.7178 13.6151ZM48.2642 15V6.81818H50.1072V8.20845H50.2031C50.3736 7.7397 50.6559 7.37393 51.0501 7.11115C51.4442 6.84482 51.9148 6.71165 52.4616 6.71165C53.0156 6.71165 53.4826 6.84659 53.8626 7.11648C54.2461 7.38281 54.516 7.7468 54.6722 8.20845H54.7575C54.9386 7.75391 55.244 7.39169 55.6737 7.1218C56.1069 6.84837 56.62 6.71165 57.2131 6.71165C57.9659 6.71165 58.5803 6.94957 59.0561 7.42543C59.532 7.90128 59.7699 8.59553 59.7699 9.50817V15H57.8363V9.80646C57.8363 9.29865 57.7013 8.92756 57.4315 8.69318C57.1616 8.45526 56.8313 8.33629 56.4407 8.33629C55.9755 8.33629 55.6115 8.48189 55.3487 8.77308C55.0895 9.06072 54.9599 9.43537 54.9599 9.89702V15H53.0689V9.72656C53.0689 9.30398 52.9411 8.96662 52.6854 8.71449C52.4332 8.46236 52.103 8.33629 51.6946 8.33629C51.4176 8.33629 51.1655 8.40732 50.9382 8.54936C50.7109 8.68786 50.5298 8.88494 50.3949 9.14062C50.2599 9.39276 50.1925 9.6875 50.1925 10.0249V15H48.2642ZM61.7261 15V6.81818H63.5692V8.20845H63.665C63.8355 7.7397 64.1178 7.37393 64.512 7.11115C64.9062 6.84482 65.3767 6.71165 65.9236 6.71165C66.4775 6.71165 66.9445 6.84659 67.3245 7.11648C67.708 7.38281 67.9779 7.7468 68.1341 8.20845H68.2194C68.4005 7.75391 68.7059 7.39169 69.1356 7.1218C69.5688 6.84837 70.0819 6.71165 70.675 6.71165C71.4278 6.71165 72.0422 6.94957 72.518 7.42543C72.9939 7.90128 73.2318 8.59553 73.2318 9.50817V15H71.2982V9.80646C71.2982 9.29865 71.1633 8.92756 70.8934 8.69318C70.6235 8.45526 70.2932 8.33629 69.9026 8.33629C69.4374 8.33629 69.0734 8.48189 68.8106 8.77308C68.5514 9.06072 68.4218 9.43537 68.4218 9.89702V15H66.5308V9.72656C66.5308 9.30398 66.403 8.96662 66.1473 8.71449C65.8952 8.46236 65.5649 8.33629 65.1565 8.33629C64.8795 8.33629 64.6274 8.40732 64.4001 8.54936C64.1729 8.68786 63.9917 8.88494 63.8568 9.14062C63.7219 9.39276 63.6544 9.6875 63.6544 10.0249V15H61.7261ZM80.4029 11.5589V6.81818H82.3311V15H80.4615V13.5458H80.3762C80.1916 14.0039 79.888 14.3786 79.4654 14.6697C79.0463 14.9609 78.5297 15.1065 77.9153 15.1065C77.3791 15.1065 76.905 14.9876 76.4931 14.7496C76.0847 14.5082 75.7651 14.1584 75.5343 13.7003C75.3034 13.2386 75.188 12.6811 75.188 12.0277V6.81818H77.1163V11.7294C77.1163 12.2479 77.2583 12.6598 77.5424 12.9652C77.8265 13.2706 78.1994 13.4233 78.661 13.4233C78.9451 13.4233 79.2203 13.354 79.4867 13.2156C79.753 13.0771 79.9714 12.8711 80.1419 12.5977C80.3159 12.3207 80.4029 11.9744 80.4029 11.5589ZM86.2423 10.206V15H84.314V6.81818H86.157V8.20845H86.2529C86.4411 7.75035 86.7412 7.38636 87.1531 7.11648C87.5686 6.84659 88.0818 6.71165 88.6926 6.71165C89.2572 6.71165 89.749 6.83239 90.1681 7.07386C90.5906 7.31534 90.9173 7.66513 91.1482 8.12322C91.3825 8.58132 91.498 9.13707 91.4944 9.79048V15H89.5661V10.0888C89.5661 9.5419 89.4241 9.11399 89.14 8.80504C88.8595 8.49609 88.4706 8.34162 87.9735 8.34162C87.6361 8.34162 87.336 8.41619 87.0732 8.56534C86.814 8.71094 86.6098 8.92223 86.4607 9.19922C86.3151 9.47621 86.2423 9.81179 86.2423 10.206ZM93.4546 15V6.81818H95.3829V15H93.4546ZM94.4241 5.65696C94.1187 5.65696 93.8559 5.55575 93.6357 5.35334C93.4156 5.14737 93.3055 4.90057 93.3055 4.61293C93.3055 4.32173 93.4156 4.07493 93.6357 3.87251C93.8559 3.66655 94.1187 3.56357 94.4241 3.56357C94.733 3.56357 94.9958 3.66655 95.2124 3.87251C95.4326 4.07493 95.5427 4.32173 95.5427 4.61293C95.5427 4.90057 95.4326 5.14737 95.2124 5.35334C94.9958 5.55575 94.733 5.65696 94.4241 5.65696ZM101.451 6.81818V8.30966H96.7479V6.81818H101.451ZM97.9091 4.85795H99.8374V12.5391C99.8374 12.7983 99.8764 12.9972 99.9545 13.1357C100.036 13.2706 100.143 13.3629 100.274 13.4126C100.406 13.4624 100.551 13.4872 100.711 13.4872C100.832 13.4872 100.942 13.4783 101.041 13.4606C101.144 13.4428 101.222 13.4268 101.276 13.4126L101.6 14.9201C101.498 14.9556 101.35 14.9947 101.158 15.0373C100.97 15.0799 100.739 15.1048 100.466 15.1119C99.983 15.1261 99.5479 15.0533 99.1609 14.8935C98.7738 14.7301 98.4666 14.478 98.2393 14.1371C98.0156 13.7962 97.9055 13.37 97.9091 12.8587V4.85795ZM104.263 18.0682C104 18.0682 103.756 18.0469 103.533 18.0043C103.313 17.9652 103.137 17.919 103.005 17.8658L103.453 16.3636C103.733 16.4453 103.984 16.4844 104.204 16.4808C104.424 16.4773 104.618 16.408 104.785 16.2731C104.955 16.1417 105.099 15.9215 105.216 15.6126L105.381 15.1705L102.414 6.81818H104.46L106.345 12.9972H106.43L108.321 6.81818H110.372L107.096 15.9908C106.944 16.424 106.741 16.7951 106.489 17.104C106.237 17.4165 105.928 17.6545 105.562 17.8178C105.2 17.9847 104.767 18.0682 104.263 18.0682Z" fill="white"/>
</svg>
